<svg width="16" height="17" viewBox="0 0 16 17" fill="none" xmlns="http://www.w3.org/2000/svg">
<path d="M13.3333 9.57667C13.3333 12.91 11 14.5767 8.22667 15.5433C8.08145 15.5926 7.9237 15.5902 7.78001 15.5367C5.00001 14.5767 2.66667 12.91 2.66667 9.57667V4.91001C2.66667 4.7332 2.73691 4.56363 2.86193 4.4386C2.98696 4.31358 3.15653 4.24334 3.33334 4.24334C4.66667 4.24334 6.33334 3.44334 7.49334 2.43001C7.63457 2.30934 7.81424 2.24304 8.00001 2.24304C8.18577 2.24304 8.36544 2.30934 8.50667 2.43001C9.67334 3.45001 11.3333 4.24334 12.6667 4.24334C12.8435 4.24334 13.0131 4.31358 13.1381 4.4386C13.2631 4.56363 13.3333 4.7332 13.3333 4.91001V9.57667Z" stroke="#71717A" stroke-width="1.33333" stroke-linecap="round" stroke-linejoin="round"/>
</svg>
