<svg width="41" height="41" viewBox="0 0 41 41" fill="none" xmlns="http://www.w3.org/2000/svg">
<path d="M25.66 3.49329H10.66C9.77594 3.49329 8.92809 3.84448 8.30297 4.4696C7.67785 5.09472 7.32666 5.94256 7.32666 6.82662V33.4933C7.32666 34.3773 7.67785 35.2252 8.30297 35.8503C8.92809 36.4754 9.77594 36.8266 10.66 36.8266H30.66C31.544 36.8266 32.3919 36.4754 33.017 35.8503C33.6421 35.2252 33.9933 34.3773 33.9933 33.4933V11.8266L25.66 3.49329Z" stroke="#18181B" stroke-width="3.33333" stroke-linecap="round" stroke-linejoin="round"/>
<path d="M23.9933 3.49329V10.16C23.9933 11.044 24.3445 11.8919 24.9696 12.517C25.5948 13.1421 26.4426 13.4933 27.3267 13.4933H33.9933" stroke="#18181B" stroke-width="3.33333" stroke-linecap="round" stroke-linejoin="round"/>
<path d="M17.3267 15.16H13.9933" stroke="#18181B" stroke-width="3.33333" stroke-linecap="round" stroke-linejoin="round"/>
<path d="M27.3267 21.8267H13.9933" stroke="#18181B" stroke-width="3.33333" stroke-linecap="round" stroke-linejoin="round"/>
<path d="M27.3267 28.4933H13.9933" stroke="#18181B" stroke-width="3.33333" stroke-linecap="round" stroke-linejoin="round"/>
</svg>
