<svg width="41" height="41" viewBox="0 0 41 41" fill="none" xmlns="http://www.w3.org/2000/svg">
<path d="M34.3133 21.8266C34.3133 30.16 28.48 34.3266 21.5467 36.7433C21.1836 36.8663 20.7892 36.8604 20.43 36.7266C13.48 34.3266 7.64668 30.16 7.64668 21.8266V10.16C7.64668 9.71794 7.82227 9.29402 8.13483 8.98146C8.44739 8.6689 8.87131 8.4933 9.31334 8.4933C12.6467 8.4933 16.8133 6.4933 19.7133 3.95997C20.0664 3.6583 20.5156 3.49255 20.98 3.49255C21.4444 3.49255 21.8936 3.6583 22.2467 3.95997C25.1633 6.50997 29.3133 8.4933 32.6467 8.4933C33.0887 8.4933 33.5126 8.6689 33.8252 8.98146C34.1377 9.29402 34.3133 9.71794 34.3133 10.16V21.8266Z" stroke="#18181B" stroke-width="3.33333" stroke-linecap="round" stroke-linejoin="round"/>
</svg>
