<svg width="16" height="17" viewBox="0 0 16 17" fill="none" xmlns="http://www.w3.org/2000/svg">
<path d="M9.99999 2.24341H3.99999C3.64637 2.24341 3.30723 2.38388 3.05718 2.63393C2.80713 2.88398 2.66666 3.22312 2.66666 3.57674V14.2434C2.66666 14.597 2.80713 14.9362 3.05718 15.1862C3.30723 15.4363 3.64637 15.5767 3.99999 15.5767H12C12.3536 15.5767 12.6928 15.4363 12.9428 15.1862C13.1928 14.9362 13.3333 14.597 13.3333 14.2434V5.57674L9.99999 2.24341Z" stroke="#22C55E" stroke-width="1.33333" stroke-linecap="round" stroke-linejoin="round"/>
<path d="M9.33334 2.24341V4.91007C9.33334 5.2637 9.47382 5.60284 9.72387 5.85288C9.97392 6.10293 10.3131 6.24341 10.6667 6.24341H13.3333" stroke="#22C55E" stroke-width="1.33333" stroke-linecap="round" stroke-linejoin="round"/>
<path d="M6.66668 6.91003H5.33334" stroke="#22C55E" stroke-width="1.33333" stroke-linecap="round" stroke-linejoin="round"/>
<path d="M10.6667 9.57666H5.33334" stroke="#22C55E" stroke-width="1.33333" stroke-linecap="round" stroke-linejoin="round"/>
<path d="M10.6667 12.2434H5.33334" stroke="#22C55E" stroke-width="1.33333" stroke-linecap="round" stroke-linejoin="round"/>
</svg>
