<svg width="16" height="17" viewBox="0 0 16 17" fill="none" xmlns="http://www.w3.org/2000/svg">
<path d="M10 2.24341H4.00001C3.64638 2.24341 3.30724 2.38388 3.0572 2.63393C2.80715 2.88398 2.66667 3.22312 2.66667 3.57674V14.2434C2.66667 14.597 2.80715 14.9362 3.0572 15.1862C3.30724 15.4363 3.64638 15.5767 4.00001 15.5767H12C12.3536 15.5767 12.6928 15.4363 12.9428 15.1862C13.1929 14.9362 13.3333 14.597 13.3333 14.2434V5.57674L10 2.24341Z" stroke="#71717A" stroke-width="1.33333" stroke-linecap="round" stroke-linejoin="round"/>
<path d="M9.33333 2.24341V4.91007C9.33333 5.2637 9.4738 5.60284 9.72385 5.85288C9.9739 6.10293 10.313 6.24341 10.6667 6.24341H13.3333" stroke="#71717A" stroke-width="1.33333" stroke-linecap="round" stroke-linejoin="round"/>
<path d="M6.66666 6.91003H5.33333" stroke="#71717A" stroke-width="1.33333" stroke-linecap="round" stroke-linejoin="round"/>
<path d="M10.6667 9.57666H5.33333" stroke="#71717A" stroke-width="1.33333" stroke-linecap="round" stroke-linejoin="round"/>
<path d="M10.6667 12.2434H5.33333" stroke="#71717A" stroke-width="1.33333" stroke-linecap="round" stroke-linejoin="round"/>
</svg>
