<svg width="16" height="17" viewBox="0 0 16 17" fill="none" xmlns="http://www.w3.org/2000/svg">
<path d="M13.3333 9.57667C13.3333 12.91 11 14.5767 8.22666 15.5433C8.08143 15.5926 7.92368 15.5902 7.77999 15.5367C4.99999 14.5767 2.66666 12.91 2.66666 9.57667V4.91001C2.66666 4.7332 2.73689 4.56363 2.86192 4.4386C2.98694 4.31358 3.15651 4.24334 3.33332 4.24334C4.66666 4.24334 6.33332 3.44334 7.49332 2.43001C7.63456 2.30934 7.81423 2.24304 7.99999 2.24304C8.18575 2.24304 8.36542 2.30934 8.50666 2.43001C9.67332 3.45001 11.3333 4.24334 12.6667 4.24334C12.8435 4.24334 13.013 4.31358 13.1381 4.4386C13.2631 4.56363 13.3333 4.7332 13.3333 4.91001V9.57667Z" stroke="#22C55E" stroke-width="1.33333" stroke-linecap="round" stroke-linejoin="round"/>
</svg>
