<svg width="17" height="16" viewBox="0 0 17 16" fill="none" xmlns="http://www.w3.org/2000/svg">
<g clip-path="url(#clip0_3_163)">
<path d="M15.5302 8.16666C15.5302 7.64666 15.4836 7.14666 15.3969 6.66666H8.49023V9.50666H12.4369C12.2636 10.42 11.7436 11.1933 10.9636 11.7133V13.56H13.3436C14.7302 12.28 15.5302 10.4 15.5302 8.16666Z" fill="#4285F4"/>
<path d="M8.49003 15.3333C10.47 15.3333 12.13 14.68 13.3434 13.56L10.9634 11.7133C10.31 12.1533 9.47669 12.42 8.49003 12.42C6.58336 12.42 4.96336 11.1333 4.38336 9.39999H1.94336V11.2933C3.15003 13.6867 5.62336 15.3333 8.49003 15.3333Z" fill="#34A853"/>
<path d="M4.38341 9.39332C4.23674 8.95332 4.15007 8.48665 4.15007 7.99998C4.15007 7.51332 4.23674 7.04665 4.38341 6.60665V4.71332H1.94341C1.44341 5.69998 1.15674 6.81332 1.15674 7.99998C1.15674 9.18665 1.44341 10.3 1.94341 11.2867L3.84341 9.80665L4.38341 9.39332Z" fill="#FBBC05"/>
<path d="M8.49003 3.58666C9.57003 3.58666 10.53 3.95999 11.2967 4.67999L13.3967 2.57999C12.1234 1.39332 10.47 0.666656 8.49003 0.666656C5.62336 0.666656 3.15003 2.31332 1.94336 4.71332L4.38336 6.60666C4.96336 4.87332 6.58336 3.58666 8.49003 3.58666Z" fill="#EA4335"/>
</g>
<defs>
<clipPath id="clip0_3_163">
<rect width="16" height="16" fill="white" transform="translate(0.490234)"/>
</clipPath>
</defs>
</svg>
